<?xml version="1.0" encoding="utf-8"?>
<!-- Generator: Adobe Illustrator 19.0.0, SVG Export Plug-In . SVG Version: 6.00 Build 0)  -->
<svg version="1.1" xmlns="http://www.w3.org/2000/svg" xmlns:xlink="http://www.w3.org/1999/xlink" x="0px" y="0px"
	 viewBox="66.1 151.4 756.5 199.2" style="enable-background:new 66.1 151.4 756.5 199.2;" xml:space="preserve">
<style type="text/css">
	.st0{clip-path:url(#SVGID_2_);}
	.st1{fill:#7C7C7C;}
	.st2{display:none;}
	.st3{display:inline;fill:#FF0000;}
	.st4{display:inline;}
</style>
<g id="Layer_2">
</g>
<g id="Layer_1">
	<g>
		<defs>
			<path id="SVGID_1_" d="M496.7,260.5c8.4-10.3,17.9-19.2,30.6-24.5c-5.4-6.3-26.9-9.8-35.1-9.8C484.8,234.8,491,254.2,496.7,260.5
				z M533.9,258c7.3,3.1,14.6,6.7,24.6,9c3.8-4.1,6.6-5.9,10.7-16.7c2.7-7.1,2.8-17.8-0.4-22.6C560.6,237.9,551.4,247.8,533.9,258z
				 M538.5,218.8c2.7,9.4,3.5,20.1,3.5,31.5c7.4-4.2,24.3-19.8,25.6-26.4C563.5,217.4,549.7,210.9,538.5,218.8z M530.7,288.5
				c12.8-5.1,24.2-17.1,26.2-19.6c-12.8-4-24.3-9.1-34.6-15.3C521.7,262.7,526.7,282.2,530.7,288.5z M497.8,262
				c4.3,7.6,18.8,19.4,28.1,24.5c-4.2-17.1-7.7-22.9-7.1-42.9C513.2,245.7,500.2,257.9,497.8,262z M494.6,222.8
				c17.8,2.8,25.1,5.1,44.5,16c0-6.7-1.2-12.1-2.6-18.3l-6.3,5.6c-3.5-3.8-8.6-9.1-15.7-10.4C506.5,214.3,497.4,218.3,494.6,222.8z
				 M443.3,227.1l1.9-0.4c1,0,2,0.4,2.9,1.2s1.4,1.5,1.4,1.9c0,0.5-2.9,4.9-8.6,13.3c-5.7,8.4-8.5,14.3-8.5,17.6
				c0,0.3,0,0.5,0.1,0.8c0.5,2.1,1.4,3.2,3,3.2c3.4,0,8.8-4.1,16.3-12.1c1.2-1.5,8.1-10.2,9.2-11.8c33.1-46.5,83.6-86,121-19.2
				c0.1,0.6-1,0.5-2.1-1.2c-45.9-71.6-91.4-6.7-117.9,24c-0.7,0.8,0.1,0.1-5.5,6.7l0,0c-9.1,11.1-16.3,16.6-21.4,16.6
				c-0.8,0-1.6-0.1-2.4-0.4c-4-1.6-6-4.6-6-9.1c0-1.6,0.2-3.1,0.5-4.7l-8.5,8.3c-5.4,4.8-9.4,7.1-11.8,7.1s-4.8-0.8-6.9-2.3
				c-2.5-1.8-3.7-4.3-3.7-7.3c0-1.9,0.4-3.8,1.1-5.9l0,0c-9.4,10.1-16.2,15.1-20.4,15.1c-4.5,0-6.7-2.5-6.7-7.5
				c0-5,1.8-10.6,5.5-17.1l8.8-14.3c-6.2,4.6-11.8,9.6-16.7,15.1c-4.9,5.5-9.3,10.8-13.3,15.9c-4,5.1-6.3,7.7-6.9,7.7
				c-1.4,0-2.5-0.6-3.3-1.7s-1.2-2.6-1.2-4.3c0-1.7,0.6-4,1.8-6.8c1.2-2.9,2.7-6.3,4.6-10.3l-3,3.2l-0.9,1l0,0
				c-0.3,0.3-0.7,0.7-1,1.1l-3.5,3.6l0,0l0,0c-0.1,0.1-0.3,0.3-0.4,0.4l0,0l0,0l-1.2,1.3c-1.2,1.3-2.1,2.1-2.6,2.6
				c-0.5,0.4-1.3,1.2-2.6,2.3c-1.2,1.2-2.2,2-2.8,2.4c-0.7,0.5-1.6,1.2-2.7,2.1c-1.2,0.9-2.3,1.6-3.2,2c-0.9,0.4-2,0.9-3.2,1.4
				c-1.9,0.8-4.2,1.2-6.9,1.2c-4.7,0-7-3-7-9.1c0-2.2,0.5-4.7,1.6-7.6c-1.5,0.9-3,1.3-4.6,1.3c-4.5,0-8.1-3.3-10.9-9.9
				c-2.8,6.5-6.9,12.2-12.1,16.9c-5.2,4.7-10.4,7.1-15.6,7.1c-4.9,0-7.3-3.7-7.3-11c0-0.9,0.1-1.9,0.4-3.1
				c-7.9,9-14.1,13.4-18.7,13.4c-0.8,0-1.6-0.1-2.3-0.4c-4.1-1.6-6.1-4.6-6.1-9.1c0-1.6,0.2-3.1,0.5-4.7l-8.5,8.3
				c-5.4,4.8-9.4,7.1-11.8,7.1s-4.8-0.8-6.9-2.3c-2.5-1.8-3.7-4.3-3.7-7.3c0-6.7,4.7-14.7,14.1-24s18-14,25.8-14c3,0,5,1,6.1,3.1
				c0.3,0.7,0.5,1.4,0.7,1.9s0.3,0.8,0.4,0.8l1.9-0.4c1,0,2,0.4,2.9,1.2s1.4,1.5,1.4,1.9c0,0.5-2.9,4.9-8.6,13.3s-8.5,14.3-8.5,17.6
				c0,0.3,0.1,0.5,0.1,0.8c0.5,2.1,1.5,3.2,3,3.2c4,0,10.9-5.6,20.5-16.9l0.3-0.5c2.6-5.7,7.1-13,13.3-21.9
				c10.8-15.5,19-23.3,24.7-23.3c1.2,0,2.3,0.4,3.2,1.1c1,0.7,1.4,1.6,1.4,2.6c0-0.1-0.7,0.6-2,2.1s-5,5.4-10.9,11.8
				S280.7,233.3,275,241c-5.7,7.7-8.5,13.7-8.5,17.9c0,1.1,0.3,2.3,0.9,3.6c0.6,1.3,1.6,1.9,3,1.9c4,0,8.8-3.1,14.2-9.4
				c4.5-5.5,7.3-10.1,8.3-13.9c-0.7-1.9-1-4.3-1-7.2c0-6.2,1.9-9.4,5.8-9.4c0.4,0,0.8,0.1,1.2,0.1c1.6,0.3,2.4,1.5,2.4,3.6
				s-0.4,4.8-1.1,8c-0.7,2.4-1.2,4.2-1.5,5.4c0.3,1.6,1,3.6,2.3,6c1.2,2.4,2.9,3.7,5.1,3.7c2,0,4.2-1.2,6.6-3.8
				c1.2-2.3,2.6-4.8,4.2-7.5c5.4-8.8,9.8-13.2,13.1-13.3c0.9,0,1.9,0.4,3.1,1.1c1.2,0.7,1.7,1.5,1.7,2.2c-0.5,0.6-1,1.4-1.7,2.1
				c-0.6,0.8-1.3,1.6-2,2.6c-0.7,0.9-1.8,2.2-3,3.9c-1.3,1.7-2.5,3.3-3.7,4.9c-6.9,8.9-10.3,15.1-10.3,18.4s1.1,5,3.4,5
				c1.9,0,4.6-1,7.9-3.1c4.5-2.8,8.5-5.8,12-8.9l0,0l0,0l0,0c0.2-0.3,0.4-0.6,0.7-0.9c1.1-1.1,2.1-2.1,3.1-3.1
				c1.5-1.7,3-3.3,4.3-4.8l0.1-0.1l0.1-0.1l0.1-0.1l0.1-0.1l0,0c0.4-0.5,0.9-1,1.3-1.6c2.4-3.1,7.3-9.1,14.7-17.9
				c0.8-1.1,1.7-1.7,2.6-1.7c2.5,0,3.7,1,3.7,2.9c0,0.6-0.1,1.1-0.4,1.7c-8.3,11.5-13.2,20.2-14.9,26c21.4-21.4,34.4-32.1,39-32.1
				c0.5-0.1,0.9-0.1,1.2-0.1c2.6,0,3.9,1.1,3.9,3.4c0,0.5-0.1,0.9-0.3,1.4s-2,2.9-5.5,7.4c-4.1,4.8-7.5,9.4-10.3,13.8
				s-4.2,8.1-4.2,11c0,2.9,0.6,4.4,1.9,4.4c4,0,11.1-5.6,21.1-16.7c0.2-0.2,0.5-0.6,1-1.2c0.9-1.1,1.6-1.8,2-2.2l0.3-0.4l0,0
				c2.1-2.8,4.6-5.7,7.7-8.8c9.4-9.3,18-14,25.8-14c3,0,5,1,6.1,3.1c0.3,0.7,0.5,1.4,0.7,1.9C443,226.8,443.2,227.1,443.3,227.1z
				 M340.6,212c1.4,0,2.7,0.4,3.9,1.3c1.2,0.9,1.9,1.9,1.9,3.1c0,1.2-0.6,2.2-1.7,3.1c-1.1,0.9-2.4,1.3-3.8,1.3s-2.6-0.5-3.8-1.5
				c-1.2-1-1.7-2.2-1.7-3.5C335.4,213.3,337.1,212,340.6,212z M208.4,260.9c0,3.3,1.1,5,3.4,5c5.3,0,12.6-5.8,21.8-17.5l14.6-20.1
				c-0.7-1.3-1.9-1.9-3.6-1.9c-5.6,0-13,4.3-22.3,13C213,248.1,208.4,255.3,208.4,260.9z M209.6,209.3c-3.4,1.4-6.3,2.1-8.7,2.1
				c-2.4,0-3.7-0.5-3.7-1.5c0-0.6,1.4-1,4.1-1.1s4.7-0.4,5.9-1c3.5-1.8,5.2-4.5,5.2-8.1c0-1.8-0.5-3.8-1.5-5.8
				c-2.9-5.2-10.1-7.9-21.3-7.9c-6.5,0-13.1,1-19.6,3s-12,5-16.4,9.1s-6.6,7.9-6.6,11.4c0,5.3,5.3,9.2,15.8,11.7l16.2,3
				c6.5,1.2,11.4,2.8,14.6,5c4.2,2.6,6.3,6.2,6.3,11c0,1.9-0.3,4-1,6.2c-2.9,9.9-10.5,17.5-22.7,22.7c-10.2,4.5-22.2,6.7-36.1,6.7
				c-4,0-7.4-0.2-10.3-0.5c2.9,1.6,6.8,3.1,11.6,4.3c0.4,0.1,0.6,0.3,0.6,0.5c0,0.8-1,1.2-2.9,1.2c-3.8,0-8.4-2.3-14.1-6.7
				c-7.6-1.2-13.3-3.3-17.1-6.3c-2.4-1.9-4.6-4.8-6.6-8.5c-2-3.8-3-7.2-3-10.2c0-3,0.6-5.6,1.8-7.6c2.7-4.9,6.3-7.3,10.5-7.3
				c3.2,0,5.1,2.7,5.6,8.1c1.3,10.5,2.2,16.4,2.6,17.9c1.4,4.5,3.7,8.3,7,11.4c3.9,0.8,8.1,1.2,12.5,1.2c9.9,0,19.7-2,29.2-5.9
				c9.6-3.9,16.4-9.6,20.7-16.8c1.7-2.9,2.6-5.4,2.6-7.6c0-4.3-3.8-7.7-11.4-10.1l-24.3-5.5c-5-1.2-8.9-3.1-11.9-5.9
				c-3-2.7-4.5-5.9-4.5-9.5c0-5.5,3.5-11,10.3-16.5c5.2-4.2,11.7-7.5,19.2-9.9c7.6-2.3,15-3.5,22.3-3.5s13.4,1,18.1,3.2
				c6.2,2.8,9.2,7,9.2,12.5C218,203.2,215.2,207.1,209.6,209.3z M120.9,270.7c-5.3-5.9-8.7-13.9-10.2-24.1c-0.8-5.8-1.6-8.7-2.3-8.7
				s-1.4,0.2-2.1,0.6c-0.7,0.4-1.3,1.3-1.9,2.7c-0.7,1.4-1,3.2-1,5.4c0,7.1,2.5,13.1,7.4,18.2C113.3,267.4,116.6,269.3,120.9,270.7z
				 M402,260.9c0,3.3,1.2,5,3.5,5c5.3,0,12.6-5.8,21.8-17.5l14.6-20.1c-0.7-1.3-1.9-1.9-3.6-1.9c-5.6,0-13,4.3-22.3,13
				C406.7,248.1,402,255.3,402,260.9z M782.3,259.5c0,3.2-3.1,8.6-9.2,16.1c-7.3,8.9-13.4,13.4-18.6,13.4h-2.2
				c-2.4,0-4.3-1.2-5.6-3.7c-1.1-1.7-1.6-3.7-1.6-5.8c0-1.6,0.3-3.5,1-5.5l0,0c-3.5,3.5-7.3,6.5-11.4,9c-7.2,4.4-14,6.6-20.5,6.6
				c-2.9,0-5.2-0.6-7-1.9c-1.8-1.2-2.7-3.7-2.7-7.5c0-3.7,1.6-8.9,5-15.5c3.3-6.6,5.8-11.5,7.6-14.7c-1.3,0.3-2.4,0.4-3.3,0.4
				c-2.7,0-4-1-4-3.1c0-1.6,1.1-2.7,3.3-3.3c0.3,0,0.7-0.1,1.2-0.1h8c1.6-2.1,3.5-4.5,5.6-7.3c2.6-3.3,4.3-5,5.2-5s2.1,0.4,3.4,1.1
				c1.4,0.7,2.1,1.6,2.1,2.6s-2.2,4-6.6,9c2.4,0.1,5.5,0.1,9.4,0.1l19.8-0.3c0.3,0.2,0.4,0.3,0.4,0.4c0,0.8-5.7,2-17.1,3.4
				c-11.5,1.5-17.6,2.4-18.5,2.6c-1.8,1.6-5,6.2-9.6,14c-4.7,7.8-7,13.4-7,17c0,3.4,2.3,5.1,7,5.1c2.2,0,5.1-0.7,8.7-2.1
				s6.3-2.7,8.3-3.9c5-3.2,10.5-7.8,16.2-13.9l0,0l0,0l0,0c1.9-3.2,4.4-6.7,7.5-10.6c8.1-10,14.5-14.9,19.5-14.9c4.7,0,7,2.5,7,7.4
				c0,1.3-0.2,2.9-0.7,5c0.1,0.3,1,0.4,2.6,0.4s4.2-0.9,7.6-2.6c-0.1,1.6-3.7,3.8-10.9,6.8C782.2,258.6,782.3,259,782.3,259.5z
				 M652.3,254.1c8.9,0.3,13.6,0.4,14.1,0.4s0.8,0,0.9,0c2.2-0.2,3.3,0.1,3.3,1c0,1.3-1.8,1.9-5.4,1.9l-11.7-0.3
				c-2.4,0.2-3.8,0.4-4.3,0.7c-3.9,4.8-9,11.7-15.6,20.7c-6.5,9-9.8,14.4-9.8,16.2c0,0.7,0.8,0.5,2.5-0.6c1,0,1.5,0.1,1.5,0.4
				c0,0.5-1,1.1-3,2.1l-3.9,2.1c-1.8,1.4-3.7,2.2-6,2.2s-3.3-0.5-3.1-1.6c0.1-2.2,3.4-7.8,9.8-16.8c6.4-8.9,13.1-17.5,20-25.5
				c-6.6,1.2-11.7,1.8-15.1,1.8c-0.4-0.1-0.6-0.4-0.6-0.9s0.6-1.2,1.6-2.1c1.1-0.9,2.3-1.4,3.5-1.4s3.3,0,6-0.1h7
				c3.1-4.2,10-14,20.8-29.2c4.4-6.3,6.6-11.6,6.6-15.7c0-6.4-4.8-9.6-14.3-9.6c-7.4,0-16.2,2.1-26.2,6.2
				c-10,4.1-19.3,9.8-27.8,16.9c-6,5-10.7,10.3-14.2,16.1s-5.2,10.9-5.2,15.4c0,7.3,4.3,10.9,13,10.9c0.7,0,1.5,0,2.3-0.1
				c5.6-0.5,10.9-3.7,15.9-9.6c5-5.9,7.5-10.9,7.5-15c0-0.4-0.1-0.8-0.1-1.2c2.4,0.5,3.6,1.9,3.6,4.3c0,2.9-1.4,6.2-4.1,9.8h0.1
				c-1.2,1.5-8.1,10.2-9.2,11.8c-33.1,46.5-83.5,86-121,19.2c-0.1-0.6,1-0.5,2.1,1.2c44.5,69.3,88.5,10.7,115.3-21
				c-4.6,2.5-9.7,3.8-15.1,3.8c-5,0-9-1.3-11.8-4s-4.3-6.3-4.3-10.9c0-10.8,6.6-21.8,19.8-32.8c9.6-7.8,19.7-13.7,30.4-17.7
				s20.1-6,28-6s13.9,1.1,17.8,3.4c3.9,2.3,5.8,5.5,5.8,9.6s-1.8,8.7-5.4,13.8C672.4,227.3,665,237.4,652.3,254.1z M702.6,259.5
				c0,3.2-3.1,8.6-9.2,16.1c-7.3,8.9-13.5,13.4-18.6,13.4h-2.2c-2.4,0-4.3-1.2-5.6-3.7c-1.1-1.7-1.7-3.7-1.7-5.8
				c0-5.5,4-13.2,12.1-23.2c8-10,14.5-14.9,19.5-14.9c4.7,0,7,2.5,7,7.4c0,1.3-0.2,2.9-0.7,5c0.1,0.3,1,0.4,2.6,0.4
				c1.7,0,4.2-0.9,7.6-2.6c-0.1,1.6-3.7,3.8-10.9,6.8C702.6,258.6,702.6,259,702.6,259.5z M693.7,252.3c-3.1,0-7.6,3.7-13.3,11
				c-5.7,7.4-8.6,12.8-8.6,16.3s1.1,5.2,3.3,5.2c4,0,9-3.6,15-10.7c6.1-7.2,9.1-12.3,9.1-15.4C697.7,257.8,695.9,255.7,693.7,252.3z
				 M773.3,252.3c-3.1,0-7.5,3.7-13.3,11c-5.8,7.4-8.6,12.8-8.6,16.3s1.1,5.2,3.3,5.2c3.9,0,9-3.6,15-10.7c6-7.2,9.1-12.3,9.1-15.4
				C777.4,257.8,775.5,255.7,773.3,252.3z"/>
		</defs>
		<use xlink:href="#SVGID_1_"  style="overflow:visible;fill:#FFFFFF;"/>
		<clipPath id="SVGID_2_">
			<use xlink:href="#SVGID_1_"  style="overflow:visible;"/>
		</clipPath>
		<g class="st0">
			<path class="st1" style="fill:#FF2222; stroke-dasharray: 20;" d="M142.8,282.8c0,0-0.4-0.1-1.1-0.2c-0.7-0.1-1.8-0.3-3.2-0.7c-1.4-0.3-3.2-0.8-5.2-1.6c-2-0.8-4.1-2.3-6.2-4
				c-0.6-0.5-1.1-0.9-1.7-1.4c-0.5-0.5-1.1-0.9-1.7-1.4c-1.1-1-2.2-2.2-3.3-3.2c-0.6-0.5-1.2-1.2-2-1.8l-0.3-0.3l-0.2-0.3
				c-0.1-0.2-0.2-0.4-0.3-0.5c-0.2-0.4-0.5-0.7-0.9-0.9c-0.8-0.5-2.2-1-2.5-2c-0.4-0.9-0.9-1.8-1.2-2.8c-1.5-3.9-2.2-8.3-2.7-12.4
				c-0.3-2-0.5-4-1-5.8c-0.1-0.4-0.2-0.9-0.4-1.3l-0.2-0.6l-0.1-0.2c0,0.1-0.1-0.2,0,0.1l0-0.1l-0.2-0.4c-0.2-0.5-0.4-0.5-0.2-0.3
				c0.1,0.1,0.3,0.2,0.4,0.2c0.1,0,0.1,0,0,0.1c-0.2,0.1-0.7,0.4-1.2,0.9c-0.9,1-1.7,2.5-1.9,3.9c-0.1,0.4-0.1,0.7-0.1,1.1
				c0,0.2,0,0.3,0,0.5l0.1,0.6c0.1,1.1,0.3,2.2,0.6,3.2c0.5,2.1,1.2,4.2,2.1,6.1c0.9,1.9,2.1,3.5,3.5,4.8c0.7,0.6,1.4,1.2,2.2,1.7
				l0.2,0.1l0.1,0c0.2,0.1-0.2-0.1-0.1-0.1l0.5,0.2l0.9,0.5c0.1,0.1,0.3,0.2,0.4,0.2l0.4,0.1l0.7,0.3c0.4,0.2,1.1,0.4,1.6,0.6
				c0.5,0.2,1.1,0.4,1.7,0.5c1.1,0.4,2.4,0.6,3.6,0.9c2.5,0.5,5,0.9,7.6,1c5.2,0.4,10.7,0.4,16.2-0.2c5.5-0.5,11.1-1.4,16.7-2.7
				l1-0.2l0.5-0.1c0.1,0,0,0,0,0l0.1,0l0.3-0.1c0.8-0.2,1.3-0.3,1.8-0.5c1.2-0.4,2.4-0.8,3.6-1.3c2.3-1,4.6-2.3,6.7-3.8
				c4.2-3,7.9-7,9.8-11.2c1-2.1,1.5-4.2,1.3-5.8c-0.2-1.6-0.7-2.7-1.9-3.8c-1.2-1.1-3.3-2-5.6-2.6c-1.2-0.3-2.4-0.5-3.7-0.7
				l-2.2-0.3l-2.3-0.3c-6.2-0.8-12.3-2-18.4-4c-3-1-6.1-2.2-9.1-4.1c-1.5-0.9-3-2-4.4-3.4c-1.4-1.4-2.8-3.1-3.7-5.2
				c-1-2.1-1.4-4.6-1.2-6.8c0.1-1.1,0.3-2.2,0.5-3.2l0.1-0.4l0.1-0.4l0.2-0.5c0.2-0.5,0.4-1,0.6-1.4c1.5-3.4,3.5-6.1,5.7-8.4
				c4.4-4.6,9.3-7.9,14.4-10.5c10.1-5.1,20.7-7.5,30.6-7.6c4.9,0,9.7,0.6,14.1,1.6l0.4,0.1l0.3,0.1l0.2,0.1l0.4,0.1l0.4,0.1
				c0.7,0.2,1.3,0.4,1.9,0.7c1.2,0.5,2.3,1,3.4,1.7c2.1,1.3,4,2.9,5.5,4.8c1.5,1.9,2.7,4,3.4,6.2c0.7,2.2,0.9,4.6,0.6,6.9
				c-0.3,2.3-1.3,4.5-2.5,6.2c-1.3,1.7-2.8,3-4.3,3.9c-3,1.8-5.9,2.5-8.2,2.9c-2.4,0.4-4.3,0.4-5.9,0.4c-1.6,0-2.7-0.1-3.5-0.2
				c-0.8-0.1-1.2-0.1-1.2-0.1l0.7-7.9c0,0,0.3,0,1,0.1c0.7,0,1.7,0.1,2.9,0c1.3-0.1,2.8-0.2,4.5-0.5c1.7-0.3,3.5-1,5-1.9
				c1.5-1,2.4-2.3,2.6-4c0.2-1.7-0.5-4-2.2-6c-0.9-1-1.9-1.9-3.2-2.5c-0.6-0.3-1.3-0.6-2-0.9c-0.4-0.1-0.7-0.2-1-0.3l-0.1,0l-0.2,0
				l-0.4-0.1l-0.2,0c0.2,0,0,0,0,0l-0.1,0l-0.3-0.1c-3.7-0.8-7.6-1.1-11.8-0.9c-8.3,0.3-17.3,2.5-25.7,7c-4.1,2.2-8.1,5.1-11.2,8.5
				c-1.5,1.7-2.8,3.5-3.5,5.2c-0.1,0.2-0.1,0.4-0.2,0.5l-0.1,0.5l0,0.1c0,0-0.1,0.2,0,0l0,0.1c-0.1,0.4-0.1,0.7-0.1,0.9
				c0,0.6,0.1,0.9,0.3,1.4c0.2,0.5,0.6,1,1.3,1.6c0.6,0.6,1.5,1.2,2.4,1.8c1.9,1.1,4.3,2.1,6.8,2.9c5,1.6,10.6,2.6,16.2,3.3l2.1,0.2
				l2.2,0.2c1.7,0.2,3.4,0.5,5.2,0.9c3.5,0.9,7.2,2.2,10.6,5c1.7,1.4,3.2,3.2,4.2,5.3c1.1,2.1,1.7,4.4,1.8,6.6
				c0.3,4.5-0.8,8.4-2.4,11.8c-1.6,3.4-3.7,6.3-6,9c-2.3,2.6-4.9,4.9-7.7,6.9c-2.8,2-5.8,3.7-8.9,5.1c-1.6,0.7-3.2,1.3-4.8,1.8
				c-0.8,0.3-1.8,0.5-2.5,0.7l-0.6,0.2l-0.6,0.1l-1.1,0.2c-12.1,2.7-24.4,4-36.6,2.7c-6.1-0.7-12-1.8-17.9-4.4l-1.2-0.5l-0.6-0.3
				l-0.5-0.3l-0.9-0.5l-0.4-0.2c0,0-0.4-0.2-0.3-0.2l-0.1-0.1l-0.3-0.2c-1.5-0.9-2.9-2.1-4.1-3.3c-2.4-2.5-4.2-5.3-5.4-8.2
				c-1.2-2.9-2-5.7-2.4-8.6c-0.2-1.4-0.4-2.8-0.5-4.2c0-0.2,0-0.8-0.1-1.2c0-0.4,0-0.9,0-1.3c0.1-0.9,0.2-1.7,0.4-2.6
				c0.8-3.4,2.5-6.3,4.9-8.6c1.3-1.1,2.7-2.2,4.7-2.8c1-0.3,2.1-0.5,3.4-0.4c1.2,0.1,2.5,0.5,3.6,1.1c2.2,1.4,3.3,3.3,3.9,4.9
				l0.1,0.4l0,0.1c0.1,0.4,0.1,0.2,0.1,0.3l0.1,0.2l0.2,0.9c0.2,0.6,0.3,1.2,0.4,1.9c0.5,2.5,0.6,4.7,0.7,6.8
				c0.2,4.1,0.5,7.6,1.6,10.7c0.2,0.8,0.5,1.5,0.8,2.3c0.2,0.4,0.2,0.7,0.1,1.2c-0.1,0.5-0.3,1-0.3,1.5c0,0.5,0.1,0.9,0.4,1.3
				c0.1,0.2,0.2,0.4,0.3,0.5c0,0,0,0.1,0.1,0.1l0,0.1c0,0,0.1,0.1,0,0l0.1,0.2c0.2,0.7,0.7,1.3,1.2,1.9c1,1.2,2,2.4,3,3.5
				c0.4,0.6,0.9,1.1,1.4,1.6c0.5,0.5,1,0.9,1.5,1.2c1.1,0.7,2.2,1.2,3.2,1.6c1.1,0.4,2,0.8,3,1.1c1.8,0.7,3.5,1.1,4.8,1.5
				c1.3,0.4,2.4,0.6,3.1,0.9c0.4,0.1,0.6,0.2,0.8,0.3c0.2,0.1,0.3,0.1,0.3,0.1L142.8,282.8z"/>
		</g>
	</g>
</g>
<g id="Layer_3" class="st2">
	<path class="st3" d="M193.3,213.4c-19.7-18.3,175.3-5.6,201.3-6.8s0,26.8,0,26.8S213.3,231.9,193.3,213.4z"/>
	<path class="st4" d="M220,190.1c0,0,33.3-10.7,40,4.7s-2,22-10,20.7S220,190.1,220,190.1z M315.3,210.1c8.7-4-16.7-17.3-16.7-17.3
		s-30.3,8.7-16.7,17.3C289.3,214.8,306.7,214.1,315.3,210.1z M372.7,215.6c10-12.5,0.7-12.8-17.3-22.8s-22.6,6.4-13.3,20.6
		C349.3,224.6,362.7,228.1,372.7,215.6z"/>
</g>
</svg>
