<?xml version="1.0" encoding="utf-8"?>
<!-- Generator: Adobe Illustrator 19.0.0, SVG Export Plug-In . SVG Version: 6.00 Build 0)  -->
<svg version="1.1" id="Layer_1" xmlns="http://www.w3.org/2000/svg" xmlns:xlink="http://www.w3.org/1999/xlink" x="0px" y="0px"
	 viewBox="129.8 117.1 729.2 167.9" style="enable-background:new 129.8 117.1 729.2 167.9;" xml:space="preserve">
<style type="text/css">
	.st0{clip-path:url(#S_mask_2_);fill:none;stroke:#666666;stroke-width:11;stroke-miterlimit:10;}
	.st1{fill:#FFFFFF;}
	.st2{clip-path:url(#S_mask_3_);fill:none;stroke:#666666;stroke-width:11;stroke-miterlimit:10;}
	.st3{clip-path:url(#a_mask_12_);fill:none;stroke:#666666;stroke-width:10;stroke-miterlimit:10;}
	.st4{clip-path:url(#a_mask_13_);fill:none;stroke:#666666;stroke-width:10;stroke-miterlimit:10;}
	.st5{clip-path:url(#a_mask_14_);fill:none;stroke:#5B5B5B;stroke-width:10;stroke-miterlimit:10;}
	.st6{clip-path:url(#a_mask_15_);fill:none;stroke:#5B5B5B;stroke-width:10;stroke-miterlimit:10;}
	.st7{clip-path:url(#a_mask_16_);fill:none;stroke:#5B5B5B;stroke-width:12;stroke-miterlimit:10;}
	.st8{clip-path:url(#a_mask_17_);fill:none;stroke:#5B5B5B;stroke-width:6;stroke-miterlimit:10;}
	.st9{clip-path:url(#a_mask_18_);fill:none;stroke:#5B5B5B;stroke-width:7;stroke-miterlimit:10;}
	.st10{clip-path:url(#a_mask_19_);fill:none;stroke:#5B5B5B;stroke-width:9;stroke-miterlimit:10;}
	.st11{clip-path:url(#a_mask_20_);fill:none;stroke:#5B5C5C;stroke-width:9;stroke-miterlimit:10;}
	.st12{clip-path:url(#a_mask_21_);fill:none;stroke:#5B5B5B;stroke-width:12;stroke-miterlimit:10;}
	.st13{clip-path:url(#a_mask_22_);fill:none;stroke:#5B5B5B;stroke-width:6;stroke-miterlimit:10;}
	.st14{clip-path:url(#a_mask_23_);fill:none;stroke:#5B5B5B;stroke-width:7;stroke-miterlimit:10;}

	.st15{opacity:1;fill:#000000;}
	#serce__x3C_Clip_Group_x3E_{
		clip-path:url(#serce_mask_1_)
	}

	.st16{display:none;opacity:0.6;clip-path:url(#serce_mask_1_);fill:#3D3D3D;}

</style>

	<clipPath id="serce_mask_1_">
		<path id="serce_mask" d="M545.4,210.5c8.4-10.3,17.9-19.2,30.6-24.5c-5.4-6.3-26.9-9.8-35.1-9.8
			C533.5,184.8,539.7,204.2,545.4,210.5z M582.6,208c7.3,3.1,14.6,6.7,24.6,9c3.8-4.1,6.6-5.9,10.7-16.7c2.7-7.1,2.8-17.8-0.4-22.6
			C609.3,187.9,600.1,197.8,582.6,208z M587.2,168.8c2.7,9.4,3.5,20.1,3.5,31.5c7.4-4.2,24.3-19.8,25.6-26.4
			C612.2,167.4,598.4,160.9,587.2,168.8z M579.4,238.5c12.8-5.1,24.2-17.1,26.2-19.6c-12.8-4-24.3-9.1-34.6-15.3
			C570.4,212.7,575.4,232.2,579.4,238.5z M546.5,212c4.3,7.6,18.8,19.4,28.1,24.5c-4.2-17.1-7.7-22.9-7.1-42.9
			C561.9,195.7,548.9,207.9,546.5,212z M543.3,172.8c17.8,2.8,25.1,5.1,44.5,16c0-6.7-1.2-12.1-2.6-18.3l-6.3,5.6
			c-3.5-3.8-8.6-9.1-15.7-10.4C555.2,164.3,546.1,168.3,543.3,172.8z"/>
	</clipPath>

<g id="serce__x3C_Clip_Group_x3E_">



	<path id="serce6" class="st15" d="M587.2,168.8c2.7,9.4,3.5,20.1,3.5,31.5c7.4-4.2,24.3-19.8,25.6-26.4
		C612.2,167.4,598.4,160.9,587.2,168.8z"/>
	<path id="serce5" class="st15" d="M582.6,208c7.3,3.1,14.6,6.7,24.6,9c3.8-4.1,6.6-5.9,10.7-16.7c2.7-7.1,2.8-17.8-0.4-22.6
		C609.3,187.9,600.1,197.8,582.6,208z"/>
	<path id="serce4" class="st15" d="M579.4,238.5c12.8-5.1,24.2-17.1,26.2-19.6c-12.8-4-24.3-9.1-34.6-15.3
		C570.4,212.7,575.4,232.2,579.4,238.5z"/>
	<path id="serce3" class="st15" d="M546.5,212c4.3,7.6,18.8,19.4,28.1,24.5c-4.2-17.1-7.7-22.9-7.1-42.9
		C561.9,195.7,548.9,207.9,546.5,212z"/>
	<path id="serce2" class="st15" d="M545.4,210.5c8.4-10.3,17.9-19.2,30.6-24.5c-5.4-6.3-26.9-9.8-35.1-9.8
		C533.5,184.8,539.7,204.2,545.4,210.5z"/>
	<path id="serce1" class="st15" d="M543.3,172.8c17.8,2.8,25.1,5.1,44.5,16c0-6.7-1.2-12.1-2.6-18.3l-6.3,5.6
		c-3.5-3.8-8.6-9.1-15.7-10.4C555.2,164.3,546.1,168.3,543.3,172.8z"/>
</g>
</svg>
