<?xml version="1.0" encoding="utf-8"?>
<!-- Generator: Adobe Illustrator 19.0.0, SVG Export Plug-In . SVG Version: 6.00 Build 0)  -->
<svg version="1.1" id="Layer_1" xmlns="http://www.w3.org/2000/svg" xmlns:xlink="http://www.w3.org/1999/xlink" x="0px" y="0px"
	 viewBox="98.5 -51 715.5 152.8" style="enable-background:new 98.5 -51 715.5 152.8;" xml:space="preserve">
<style type="text/css">
	.st0{fill:#333333;}
</style>
<g id="Layer_2">
</g>
<g id="Layer_1_1_">
	<g>
		<g>
			<path id="SVGID_1_" class="st0" d="M507.3,34.8c8.4-10.3,17.9-19.2,30.6-24.5c-5.4-6.3-26.9-9.8-35.1-9.8
				C495.3,9.1,501.5,28.5,507.3,34.8z M544.5,32.3c7.3,3.1,14.6,6.7,24.6,9c3.8-4.1,6.6-5.9,10.7-16.7c2.7-7.1,2.8-17.8-0.4-22.6
				C571.1,12.2,562,22.1,544.5,32.3z M549-6.9c2.7,9.4,3.5,20.1,3.5,31.5c7.4-4.2,24.3-19.8,25.6-26.4C574-8.3,560.3-14.8,549-6.9z
				 M541.3,62.8c12.8-5.1,24.2-17.1,26.2-19.6c-12.8-4-24.3-9.1-34.6-15.3C532.3,37,537.3,56.5,541.3,62.8z M508.3,36.3
				c4.3,7.6,18.8,19.4,28.1,24.5c-4.2-17.1-7.7-22.9-7.1-42.9C523.8,20,510.8,32.2,508.3,36.3z M505.1-2.9
				c17.8,2.8,25.1,5.1,44.5,16c0-6.7-1.2-12.1-2.6-18.3l-6.3,5.6c-3.5-3.8-8.6-9.1-15.7-10.4C517-11.4,507.9-7.4,505.1-2.9z
				 M453.8,1.4l1.9-0.4c1,0,2,0.4,2.9,1.2c0.9,0.8,1.4,1.5,1.4,1.9c0,0.5-2.9,4.9-8.6,13.3c-5.7,8.4-8.5,14.3-8.5,17.6
				c0,0.3,0,0.5,0.1,0.8c0.5,2.1,1.4,3.2,3,3.2c3.4,0,8.8-4.1,16.3-12.1c1.2-1.5,8.1-10.2,9.2-11.8c33.1-46.5,83.6-86,121-19.2
				c0.1,0.6-1,0.5-2.1-1.2c-45.9-71.6-91.4-6.7-117.9,24c-0.7,0.8,0.1,0.1-5.5,6.7l0,0C458,36.5,450.8,42,445.7,42
				c-0.8,0-1.6-0.1-2.4-0.4c-4-1.6-6-4.6-6-9.1c0-1.6,0.2-3.1,0.5-4.7l-8.5,8.3c-5.4,4.8-9.4,7.1-11.8,7.1c-2.4,0-4.8-0.8-6.9-2.3
				c-2.5-1.8-3.7-4.3-3.7-7.3c0-1.9,0.4-3.8,1.1-5.9l0,0c-9.4,10.1-16.2,15.1-20.4,15.1c-4.5,0-6.7-2.5-6.7-7.5s1.8-10.6,5.5-17.1
				l8.8-14.3c-6.2,4.6-11.8,9.6-16.7,15.1s-9.3,10.8-13.3,15.9s-6.3,7.7-6.9,7.7c-1.4,0-2.5-0.6-3.3-1.7s-1.2-2.6-1.2-4.3
				c0-1.7,0.6-4,1.8-6.8c1.2-2.9,2.7-6.3,4.6-10.3l-3,3.2l-0.9,1l0,0c-0.3,0.3-0.7,0.7-1,1.1l-3.5,3.6l0,0l0,0
				c-0.1,0.1-0.3,0.3-0.4,0.4l0,0l0,0l-1.2,1.3c-1.2,1.3-2.1,2.1-2.6,2.6c-0.5,0.4-1.3,1.2-2.6,2.3c-1.2,1.2-2.2,2-2.8,2.4
				c-0.7,0.5-1.6,1.2-2.7,2.1c-1.2,0.9-2.3,1.6-3.2,2s-2,0.9-3.2,1.4c-1.9,0.8-4.2,1.2-6.9,1.2c-4.7,0-7-3-7-9.1
				c0-2.2,0.5-4.7,1.6-7.6c-1.5,0.9-3,1.3-4.6,1.3c-4.5,0-8.1-3.3-10.9-9.9c-2.8,6.5-6.9,12.2-12.1,16.9s-10.4,7.1-15.6,7.1
				c-4.9,0-7.3-3.7-7.3-11c0-0.9,0.1-1.9,0.4-3.1c-7.9,9-14.1,13.4-18.7,13.4c-0.8,0-1.6-0.1-2.3-0.4c-4.1-1.6-6.1-4.6-6.1-9.1
				c0-1.6,0.2-3.1,0.5-4.7l-8.5,8.3c-5.4,4.8-9.4,7.1-11.8,7.1s-4.8-0.8-6.9-2.3c-2.5-1.8-3.7-4.3-3.7-7.3c0-6.7,4.7-14.7,14.1-24
				s18-14,25.8-14c3,0,5,1,6.1,3.1c0.3,0.7,0.5,1.4,0.7,1.9c0.2,0.5,0.3,0.8,0.4,0.8l1.9-0.4c1,0,2,0.4,2.9,1.2
				c0.9,0.8,1.4,1.5,1.4,1.9c0,0.5-2.9,4.9-8.6,13.3c-5.7,8.4-8.5,14.3-8.5,17.6c0,0.3,0.1,0.5,0.1,0.8c0.5,2.1,1.5,3.2,3,3.2
				c4,0,10.9-5.6,20.5-16.9l0.3-0.5c2.6-5.7,7.1-13,13.3-21.9c10.8-15.5,19-23.3,24.7-23.3c1.2,0,2.3,0.4,3.2,1.1
				c1,0.7,1.4,1.6,1.4,2.6c0-0.1-0.7,0.6-2,2.1s-5,5.4-10.9,11.8c-5.9,6.4-11.7,13.5-17.4,21.2S277,29,277,33.2
				c0,1.1,0.3,2.3,0.9,3.6c0.6,1.3,1.6,1.9,3,1.9c4,0,8.8-3.1,14.2-9.4c4.5-5.5,7.3-10.1,8.3-13.9c-0.7-1.9-1-4.3-1-7.2
				c0-6.2,1.9-9.4,5.8-9.4c0.4,0,0.8,0.1,1.2,0.1c1.6,0.3,2.4,1.5,2.4,3.6s-0.4,4.8-1.1,8c-0.7,2.4-1.2,4.2-1.5,5.4
				c0.3,1.6,1,3.6,2.3,6c1.2,2.4,2.9,3.7,5.1,3.7c2,0,4.2-1.2,6.6-3.8c1.2-2.3,2.6-4.8,4.2-7.5c5.4-8.8,9.8-13.2,13.1-13.3
				c0.9,0,1.9,0.4,3.1,1.1c1.2,0.7,1.7,1.5,1.7,2.2c-0.5,0.6-1,1.4-1.7,2.1c-0.6,0.8-1.3,1.6-2,2.6c-0.7,0.9-1.8,2.2-3,3.9
				c-1.3,1.7-2.5,3.3-3.7,4.9c-6.9,8.9-10.3,15.1-10.3,18.4s1.1,5,3.4,5c1.9,0,4.6-1,7.9-3.1c4.5-2.8,8.5-5.8,12-8.9l0,0l0,0l0,0
				c0.2-0.3,0.4-0.6,0.7-0.9c1.1-1.1,2.1-2.1,3.1-3.1c1.5-1.7,3-3.3,4.3-4.8l0.1-0.1l0.1-0.1l0.1-0.1l0.1-0.1l0,0
				c0.4-0.5,0.9-1,1.3-1.6c2.4-3.1,7.3-9.1,14.7-17.9c0.8-1.1,1.7-1.7,2.6-1.7c2.5,0,3.7,1,3.7,2.9c0,0.6-0.1,1.1-0.4,1.7
				c-8.3,11.5-13.2,20.2-14.9,26c21.4-21.4,34.4-32.1,39-32.1c0.5-0.1,0.9-0.1,1.2-0.1c2.6,0,3.9,1.1,3.9,3.4c0,0.5-0.1,0.9-0.3,1.4
				c-0.2,0.5-2,2.9-5.5,7.4c-4.1,4.8-7.5,9.4-10.3,13.8s-4.2,8.1-4.2,11s0.6,4.4,1.9,4.4c4,0,11.1-5.6,21.1-16.7
				c0.2-0.2,0.5-0.6,1-1.2c0.9-1.1,1.6-1.8,2-2.2l0.3-0.4l0,0c2.1-2.8,4.6-5.7,7.7-8.8c9.4-9.3,18-14,25.8-14c3,0,5,1,6.1,3.1
				c0.3,0.7,0.5,1.4,0.7,1.9C453.5,1.1,453.8,1.4,453.8,1.4z M351.1-13.7c1.4,0,2.7,0.4,3.9,1.3c1.2,0.9,1.9,1.9,1.9,3.1
				c0,1.2-0.6,2.2-1.7,3.1c-1.1,0.9-2.4,1.3-3.8,1.3c-1.4,0-2.6-0.5-3.8-1.5s-1.7-2.2-1.7-3.5C345.9-12.4,347.6-13.7,351.1-13.7z
				 M218.9,35.2c0,3.3,1.1,5,3.4,5c5.3,0,12.6-5.8,21.8-17.5l14.6-20.1c-0.7-1.3-1.9-1.9-3.6-1.9c-5.6,0-13,4.3-22.3,13
				C223.5,22.4,218.9,29.6,218.9,35.2z M220.1-16.4c-3.4,1.4-6.3,2.1-8.7,2.1s-3.7-0.5-3.7-1.5c0-0.6,1.4-1,4.1-1.1s4.7-0.4,5.9-1
				c3.5-1.8,5.2-4.5,5.2-8.1c0-1.8-0.5-3.8-1.5-5.8c-2.9-5.2-10.1-7.9-21.3-7.9c-6.5,0-13.1,1-19.6,3s-12,5-16.4,9.1
				s-6.6,7.9-6.6,11.4c0,5.3,5.3,9.2,15.8,11.7l16.2,3c6.5,1.2,11.4,2.8,14.6,5c4.2,2.6,6.3,6.2,6.3,11c0,1.9-0.3,4-1,6.2
				c-2.9,9.9-10.5,17.5-22.7,22.7c-10.2,4.5-22.2,6.7-36.1,6.7c-4,0-7.4-0.2-10.3-0.5c2.9,1.6,6.8,3.1,11.6,4.3
				c0.4,0.1,0.6,0.3,0.6,0.5c0,0.8-1,1.2-2.9,1.2c-3.8,0-8.4-2.3-14.1-6.7c-7.6-1.2-13.3-3.3-17.1-6.3c-2.4-1.9-4.6-4.8-6.6-8.5
				c-2-3.8-3-7.2-3-10.2s0.6-5.6,1.8-7.6c2.7-4.9,6.3-7.3,10.5-7.3c3.2,0,5.1,2.7,5.6,8.1c1.3,10.5,2.2,16.4,2.6,17.9
				c1.4,4.5,3.7,8.3,7,11.4c3.9,0.8,8.1,1.2,12.5,1.2c9.9,0,19.7-2,29.2-5.9c9.6-3.9,16.4-9.6,20.7-16.8c1.7-2.9,2.6-5.4,2.6-7.6
				c0-4.3-3.8-7.7-11.4-10.1l-24.3-5.5c-5-1.2-8.9-3.1-11.9-5.9c-3-2.7-4.5-5.9-4.5-9.5c0-5.5,3.5-11,10.3-16.5
				c5.2-4.2,11.7-7.5,19.2-9.9c7.6-2.3,15-3.5,22.3-3.5s13.4,1,18.1,3.2c6.2,2.8,9.2,7,9.2,12.5C228.5-22.5,225.7-18.6,220.1-16.4z
				 M131.4,45c-5.3-5.9-8.7-13.9-10.2-24.1c-0.8-5.8-1.6-8.7-2.3-8.7s-1.4,0.2-2.1,0.6c-0.7,0.4-1.3,1.3-1.9,2.7
				c-0.7,1.4-1,3.2-1,5.4c0,7.1,2.5,13.1,7.4,18.2C123.8,41.7,127.1,43.6,131.4,45z M412.5,35.2c0,3.3,1.2,5,3.5,5
				c5.3,0,12.6-5.8,21.8-17.5l14.6-20.1c-0.7-1.3-1.9-1.9-3.6-1.9c-5.6,0-13,4.3-22.3,13C417.3,22.4,412.5,29.6,412.5,35.2z
				 M792.8,33.8c0,3.2-3.1,8.6-9.2,16.1c-7.3,8.9-13.4,13.4-18.6,13.4h-2.2c-2.4,0-4.3-1.2-5.6-3.7c-1.1-1.7-1.6-3.7-1.6-5.8
				c0-1.6,0.3-3.5,1-5.5l0,0c-3.5,3.5-7.3,6.5-11.4,9c-7.2,4.4-14,6.6-20.5,6.6c-2.9,0-5.2-0.6-7-1.9c-1.8-1.2-2.7-3.7-2.7-7.5
				c0-3.7,1.6-8.9,5-15.5c3.3-6.6,5.8-11.5,7.6-14.7c-1.3,0.3-2.4,0.4-3.3,0.4c-2.7,0-4-1-4-3.1c0-1.6,1.1-2.7,3.3-3.3
				c0.3,0,0.7-0.1,1.2-0.1h8c1.6-2.1,3.5-4.5,5.6-7.3c2.6-3.3,4.3-5,5.2-5s2.1,0.4,3.4,1.1c1.4,0.7,2.1,1.6,2.1,2.6s-2.2,4-6.6,9
				c2.4,0.1,5.5,0.1,9.4,0.1l19.8-0.3c0.3,0.2,0.4,0.3,0.4,0.4c0,0.8-5.7,2-17.1,3.4c-11.5,1.5-17.6,2.4-18.5,2.6
				c-1.8,1.6-5,6.2-9.6,14c-4.7,7.8-7,13.4-7,17c0,3.4,2.3,5.1,7,5.1c2.2,0,5.1-0.7,8.7-2.1s6.3-2.7,8.3-3.9
				c5-3.2,10.5-7.8,16.2-13.9l0,0l0,0l0,0c1.9-3.2,4.4-6.7,7.5-10.6c8.1-10,14.5-14.9,19.5-14.9c4.7,0,7,2.5,7,7.4
				c0,1.3-0.2,2.9-0.7,5c0.1,0.3,1,0.4,2.6,0.4s4.2-0.9,7.6-2.6c-0.1,1.6-3.7,3.8-10.9,6.8C792.8,32.9,792.8,33.3,792.8,33.8z
				 M662.8,28.4c8.9,0.3,13.6,0.4,14.1,0.4s0.8,0,0.9,0c2.2-0.2,3.3,0.1,3.3,1c0,1.3-1.8,1.9-5.4,1.9L664,31.4
				c-2.4,0.2-3.8,0.4-4.3,0.7c-3.9,4.8-9,11.7-15.6,20.7c-6.5,9-9.8,14.4-9.8,16.2c0,0.7,0.8,0.5,2.5-0.6c1,0,1.5,0.1,1.5,0.4
				c0,0.5-1,1.1-3,2.1l-3.9,2.1c-1.8,1.4-3.7,2.2-6,2.2s-3.3-0.5-3.1-1.6c0.1-2.2,3.4-7.8,9.8-16.8c6.4-8.9,13.1-17.5,20-25.5
				c-6.6,1.2-11.7,1.8-15.1,1.8c-0.4-0.1-0.6-0.4-0.6-0.9s0.6-1.2,1.6-2.1c1.1-0.9,2.3-1.4,3.5-1.4s3.3,0,6-0.1h7
				c3.1-4.2,10-14,20.8-29.2c4.4-6.3,6.6-11.6,6.6-15.7c0-6.4-4.8-9.6-14.3-9.6c-7.4,0-16.2,2.1-26.2,6.2
				c-10,4.1-19.3,9.8-27.8,16.9c-6,5-10.7,10.3-14.2,16.1s-5.2,10.9-5.2,15.4c0,7.3,4.3,10.9,13,10.9c0.7,0,1.5,0,2.3-0.1
				c5.6-0.5,10.9-3.7,15.9-9.6s7.5-10.9,7.5-15c0-0.4-0.1-0.8-0.1-1.2c2.4,0.5,3.6,1.9,3.6,4.3c0,2.9-1.4,6.2-4.1,9.8h0.1
				c-1.2,1.5-8.1,10.2-9.2,11.8c-33.1,46.5-83.5,86-121,19.2c-0.1-0.6,1-0.5,2.1,1.2c44.5,69.3,88.5,10.7,115.3-21
				c-4.6,2.5-9.7,3.8-15.1,3.8c-5,0-9-1.3-11.8-4s-4.3-6.3-4.3-10.9c0-10.8,6.6-21.8,19.8-32.8c9.6-7.8,19.7-13.7,30.4-17.7
				s20.1-6,28-6s13.9,1.1,17.8,3.4c3.9,2.3,5.8,5.5,5.8,9.6s-1.8,8.7-5.4,13.8C683,1.6,675.5,11.7,662.8,28.4z M713.1,33.8
				c0,3.2-3.1,8.6-9.2,16.1c-7.3,8.9-13.5,13.4-18.6,13.4h-2.2c-2.4,0-4.3-1.2-5.6-3.7c-1.1-1.7-1.7-3.7-1.7-5.8
				c0-5.5,4-13.2,12.1-23.2c8-10,14.5-14.9,19.5-14.9c4.7,0,7,2.5,7,7.4c0,1.3-0.2,2.9-0.7,5c0.1,0.3,1,0.4,2.6,0.4
				c1.7,0,4.2-0.9,7.6-2.6c-0.1,1.6-3.7,3.8-10.9,6.8C713.1,32.9,713.1,33.3,713.1,33.8z M704.3,26.6c-3.1,0-7.6,3.7-13.3,11
				c-5.7,7.4-8.6,12.8-8.6,16.3s1.1,5.2,3.3,5.2c4,0,9-3.6,15-10.7c6.1-7.2,9.1-12.3,9.1-15.4C708.3,32.1,706.5,30,704.3,26.6z
				 M783.8,26.6c-3.1,0-7.5,3.7-13.3,11c-5.8,7.4-8.6,12.8-8.6,16.3s1.1,5.2,3.3,5.2c3.9,0,9-3.6,15-10.7c6-7.2,9.1-12.3,9.1-15.4
				C788,32.1,786,30,783.8,26.6z"/>
		</g>
	</g>
</g>
</svg>
